{"title":"88 Minutes 2007 DVD9rip English Klam","uid":8637073,"size":1947779827,"categoryP":"video","categoryS":"movies","magnet":"?xt=urn:btih:851aea71d0123836d5b8f5210b9de16c46247426&amp;dn=88+Minutes+2007+DVD9rip+English+Klam&amp;tr=udp%3A%2F%2Ftracker.openbittorrent.com%3A80&amp;tr=udp%3A%2F%2Fopen.demonii.com%3A1337&amp;tr=udp%3A%2F%2Ftracker.coppersurfer.tk%3A6969&amp;tr=udp%3A%2F%2Fexodus.desync.com%3A6969","seeders":1,"leechers":0,"uploader":"Klambake","files":-1,"time":1372783783,"description":"[img] http://img845.imageshack.us/img845/1009/v5ev.jpg[/img]\n\nWith: Al Pacino, Alicia Witt and Leelee Sobieski\n\nDe succesvolle forensisch psychiater en hoogleraar aan de universiteit Jack Gramm (Al Pacino) heeft de FBI gesteund in het proces tegen de seriemoordenaar Jon Forster (Neil McDonough). Wanneer de psychopaat wordt veroordeeld tot de doodstraf, beweert hij dat het proces oneerlijk is verlopen. Forster wijst met de beschuldigende vinger richting Gramm. Op de vooravond van de executie krijgt Jack een telefoontje van iemand die hem vertelt dat hij nog maar 88 minuten te leven heeft. Haastig gaat Jack met de hulp van de FBI op zoek naar een nieuwe seriemoordenaar die dezelfde methoden gebruikt als Jon.\n\nOn the day that a serial killer that he helped put away is supposed to be executed, a noted forensic psychologist and college professor receives a call informing him that he has 88 minutes left to live. \n &lt;a href=&quot;\nhttp://www.imdb.com/title/tt0411061&quot; rel=&quot;nofollow&quot; target=&quot;_NEW&quot;&gt;\nhttp://www.imdb.com/title/tt0411061&lt;/a&gt;\t\n\n------------------------ Dutch Friends ------------------------\n---------------------------------------------------------------\n- Bezoek ook eens mijn vrienden op: &lt;a href=&quot; http://www.Film-Test.nl&quot; rel=&quot;nofollow&quot; target=&quot;_NEW&quot;&gt; http://www.Film-Test.nl&lt;/a&gt; --\n----- voor mijn Nederlandse Sync. ondertitels ---- en meer ----\n------- http://www.Film-Test.nl ---- Over Films en meer -------\n---------------------------------------------------------------\n\nGeneral:\n\nComplete name                    : 88 Minutes88 Minutes.avi\nFormat                           : AVI\nFormat/Info                      : Audio Video Interleave\nFile size                        : 1.80 GiB\nDuration                         : 1h 50mn\nOverall bit rate                 : 2 319 Kbps\n\nVideo:\n\nFormat                           : MPEG-4 Visual\nFormat profile                   : Simple@L3\nFormat settings, BVOP            : No\nFormat settings, QPel            : No\nFormat settings, GMC             : No warppoints\nFormat settings, Matrix          : Default (H.263)\nCodec ID                         : XVID\nCodec ID/Hint                    : XviD\nDuration                         : 1h 50mn\nBit rate                         : 1 925 Kbps\nWidth                            : 720 pixels\nHeight                           : 304 pixels\nDisplay aspect ratio             : 2.35:1\nFrame rate                       : 25.000 fps\nColor space                      : YUV\nChroma subsampling               : 4:2:0\nBit depth                        : 8 bits\nScan type                        : Progressive\nCompression mode                 : Lossy\nBits/(Pixel*Frame)               : 0.352\nStream size                      : 1.49 GiB (83%)\nWriting library                  : XviD 1.1.2 (UTC 2006-11-01)\n\nAudio:\n\nFormat                           : AC-3\nFormat/Info                      : Audio Coding 3\nMode extension                   : CM (complete main)\nCodec ID                         : 2000\nDuration                         : 1h 50mn\nBit rate mode                    : Constant\nBit rate                         : 384 Kbps\nChannel(s)                       : 6 channels\nChannel positions                : Front: L C R, Side: L R, LFE\nSampling rate                    : 48.0 KHz\nBit depth                        : 16 bits\nCompression mode                 : Lossy\nStream size                      : 305 MiB (17%)\nAlignment                        : Aligned on interleaves\nInterleave, duration             : 32 ms (0.80 video frame)\nInterleave, preload duration     : 416 ms","torrent":{"xt":"urn:btih:851aea71d0123836d5b8f5210b9de16c46247426","amp;dn":"88+Minutes+2007+DVD9rip+English+Klam","amp;tr":["udp%3A%2F%2Ftracker.openbittorrent.com%3A80","udp%3A%2F%2Fopen.demonii.com%3A1337","udp%3A%2F%2Ftracker.coppersurfer.tk%3A6969","udp%3A%2F%2Fexodus.desync.com%3A6969"],"infoHash":"851aea71d0123836d5b8f5210b9de16c46247426","infoHashBuffer":{"type":"Buffer","data":[133,26,234,113,208,18,56,54,213,184,245,33,11,157,225,108,70,36,116,38]},"announce":[],"urlList":[]}}